<svg xmlns="http://www.w3.org/2000/svg" width="137" height="68" fill="none" viewBox="0 0 137 68"><path fill="#fff" d="M42.42 51.282q-1.916-5.322-7.88-5.323h-1.255v21.886h1.255q4.61 0 6.806-3.635 1.85-3.102 1.85-7.895-.005-2.851-.776-5.033M20.884 51.545q1.917 5.322 7.879 5.322h1.255V34.98h-1.255q-4.611 0-6.807 3.635-1.844 3.102-1.845 7.895 0 2.849.773 5.034M0 .027h16.698v5.796H5.994v2.898h8.892v5.5H5.994v2.931h10.704v5.796H0ZM25.095 0H46.7L35.897 23.416Zm10.803 20.518 8.925-19.3H27.005ZM55.329.027h16.698v5.796H61.323v2.898h8.892v5.5h-8.892v2.931h10.704v5.796H55.329ZM82.302 22.917V0h1.284l16.007 15.578V0h1.218v22.922ZM118.3 22.95V5.824h-8.662V.028h18.509v5.796h-8.662V22.95Z"/><path fill="#fff" d="M9.846 39.549q2.174 0 3.458.659a5.75 5.75 0 0 1 3.228 5.27 5.5 5.5 0 0 1-.856 2.98 6.1 6.1 0 0 1-2.338 2.157 6.5 6.5 0 0 1 2.997 2.174 5.5 5.5 0 0 1 1.219 3.491 5.94 5.94 0 0 1-.873 3.145 6.35 6.35 0 0 1-2.322 2.256 6.1 6.1 0 0 1-1.614.593q-.89.197-2.372.197H.23V39.55ZM48.462 60.808q-2.585-2.256-2.552-6.768h5.368q-.033 1.878 1.12 2.865 1.152.988 3.227.988 1.713 0 2.7-.56.99-.56.989-1.712 0-.956-1.005-1.383a9.4 9.4 0 0 0-1.992-.61q-.988-.18-1.219-.22a26.4 26.4 0 0 1-4.38-1.208 7.64 7.64 0 0 1-3.096-2.14q-1.251-1.45-1.251-3.82t1.251-4.034 3.343-2.487c1.455-.56 3.003-.84 4.561-.823q2.998 0 5.188 1.12t3.441 3.392c.387.64.645 1.351.758 2.091q.129.976.132 1.96h-5.368q-.001-1.779-.956-2.619-.956-.84-2.964-.84-1.614 0-2.503.56-.89.561-.89 1.515 0 1.055 1.186 1.548c.971.384 1.974.682 2.997.89q2.965.592 4.628 1.136a6.5 6.5 0 0 1 2.882 1.927q1.218 1.383 1.218 3.886 0 2.37-1.317 4.084-1.318 1.712-3.475 2.618c-1.477.611-3.062.92-4.66.906q-4.776-.006-7.361-2.262M78.778 62.471V45.345h-8.662V39.55h18.51v5.796h-8.662v17.126ZM94.85 39.549h16.698v5.796h-10.704v2.898h8.893v5.5h-8.893v2.931h10.704v5.797H94.85ZM136.281 62.471h-17.62V39.55h8.925q2.865 0 4.677 1.02a7.1 7.1 0 0 1 2.766 2.7 7.43 7.43 0 0 1 .988 3.787 7.26 7.26 0 0 1-1.581 4.594 7.44 7.44 0 0 1-3.985 2.684Zm-16.402-20.913V53.38h8.464Zm0 19.695h14.096l-4.808-6.686-1.021.033h-8.267Zm.857-20.486 8.958 12.515a6.3 6.3 0 0 0 3.656-2.207 6.1 6.1 0 0 0 1.449-4.018 6.3 6.3 0 0 0-.89-3.293 5.84 5.84 0 0 0-2.503-2.273q-1.449-.723-3.787-.724Z"/></svg>